<svg width="42" height="108" viewBox="0 0 42 108" fill="none" xmlns="http://www.w3.org/2000/svg">
<path d="M15 108C6.71573 108 0 101.284 0 93L0 15C0 6.71573 6.71573 0 15 0H42L42 108H15Z" fill="url(#paint0_linear_6068_55520)"/>
<path opacity="0.4" d="M25.3956 83H18.8333C16.9665 83 16.0331 83 15.32 82.6367C14.6928 82.3171 14.1829 81.8072 13.8633 81.18C13.5 80.4669 13.5 79.5335 13.5 77.6667V73.3333C13.5 71.4665 13.5 70.5331 13.8633 69.82C14.1829 69.1928 14.6928 68.6829 15.32 68.3633C16.0331 68 16.9665 68 18.8333 68H19.8333C21.7002 68 22.6336 68 23.3466 68.3633C23.9738 68.6829 24.4838 69.1928 24.8034 69.82C25.1667 70.5331 25.1667 71.4665 25.1667 73.3333V76.8674C25.1667 77.2851 25.1667 77.4939 25.2148 77.6899C25.2575 77.8636 25.3279 78.0293 25.4233 78.1807C25.5309 78.3514 25.6812 78.4964 25.9818 78.7864L26.7843 79.5607C27.8985 80.6358 28.4556 81.1733 28.4979 81.6363C28.5346 82.0379 28.3753 82.4326 28.07 82.6961C27.7181 83 26.9439 83 25.3956 83Z" fill="white"/>
<path d="M16.8333 78.8333C16.8333 79.2936 17.2064 79.6667 17.6666 79.6667C18.1269 79.6667 18.5 79.2936 18.5 78.8333V72.1667C18.5 71.7064 18.1269 71.3333 17.6666 71.3333C17.2064 71.3333 16.8333 71.7064 16.8333 72.1667V78.8333Z" fill="white"/>
<path d="M20.1666 78.8333C20.1666 79.2936 20.5397 79.6667 21 79.6667C21.4602 79.6667 21.8333 79.2936 21.8333 78.8333V76.3333C21.8333 75.8731 21.4602 75.5 21 75.5C20.5397 75.5 20.1666 75.8731 20.1666 76.3333V78.8333Z" fill="white"/>
<path d="M26.1709 56.1154C26.1709 53.7296 24.6738 52.0002 22.5752 51.8088L22.5 51.8019V53.8117L22.5684 53.8254C23.7373 54.092 24.4209 54.9259 24.4209 56.1154C24.4209 57.6945 23.1357 58.7062 21.0576 58.7062H21.0508C18.9863 58.7062 17.7148 57.6945 17.7148 56.1154C17.7148 54.8849 18.4258 54.0783 19.5127 53.8459L19.6289 53.8185V51.8088L19.5674 51.8156C17.4756 52.007 15.9648 53.7228 15.9648 56.1154C15.9648 58.9933 17.8789 60.8117 21.0576 60.8117H21.0645C24.2432 60.8117 26.1709 59.0002 26.1709 56.1154ZM26 49.9636V47.8991H21.8438V43.4558H26V41.3913H16.1357V43.4558H20.1416V47.8991H16.1357V49.9636H26ZM26 39.8196V37.6526L23.6074 36.9075V33.4212L26 32.6761V30.5091L16.1357 33.9475V36.3743L26 39.8196ZM18.0498 35.1848V35.1438L22.0625 33.8997V36.429L18.0498 35.1848ZM26 27.9188V25.8543H17.8379L17.8379 22.9969H16.1357L16.1357 30.7694H17.8379V27.9188H26Z" fill="white"/>
<defs>
<linearGradient id="paint0_linear_6068_55520" x1="39.9" y1="99.9" x2="-27.8872" y2="70.0234" gradientUnits="userSpaceOnUse">
<stop stop-color="#26AD71"/>
<stop offset="1" stop-color="#32CB4B"/>
</linearGradient>
</defs>
</svg>
